:version 1.10
:name ASF
:units
  mass 1
  length 1
  angle deg
:documentation
  ASF file generated by Kaydara
:root
  axis xyz
  order  tx ty tz rx ry rz
  position 0 0 0
  orientation 0 0 0
:bonedata
  begin
    id 1
    name RightUpLegDummy
    direction -0.718183 -0.695806 0.00816078
    length 4.904
    axis 0 0 0 xyz
  end
  begin
    id 2
    name RightUpLeg
    direction -0.0736652 -0.994202 0.0783343
    length 17.4976
    axis -2.72909 -3.00389 -4.00133 xyz
    dof rx ry rz
  end
  begin
    id 3
    name RightLeg
    direction -0.0389037 -0.994596 -0.0962598
    length 16.5821
    axis 3.95836 -18.5909 -4.46993 xyz
    dof rx ry rz
  end
  begin
    id 4
    name RightFoot
    direction -0.311643 -0.412678 0.855906
    length 3.77069
    axis -1.99483 -18.8351 -3.27644 xyz
    dof rx ry rz
  end
  begin
    id 5
    name RightToes
    direction -0.317852 0.0389852 0.947339
    length 3.85082
    axis -2.00228 -18.1713 -3.25211 xyz
    dof rx ry rz
  end
  begin
    id 6
    name SpineDummy
    direction 8.3039e-015 1 4.44677e-016
    length 4.6813
    axis 0 0 0 xyz
  end
  begin
    id 7
    name Spine
    direction -0.000262373 0.999988 0.00493267
    length 10.1015
    axis -0.00246081 0.00062579 0.0150362 xyz
    dof rx ry rz
  end
  begin
    id 8
    name Spine1
    direction 0 0 0
    length 0
    axis -0.00349562 0.000650293 0.0196666 xyz
    dof rx ry rz
  end
  begin
    id 9
    name HEadDummy
    direction -0.000343232 0.999999 0.00123745
    length 3.43865
    axis -0.00349562 0.000650293 0.0196666 xyz
  end
  begin
    id 10
    name HEad
    direction -0.0461221 0.980933 0.188796
    length 5.12695
    axis -0.00351404 -7.04812 0.0199272 xyz
    dof rx ry rz
  end
  begin
    id 11
    name LeftShoulder1Dummy
    direction 0.998904 -0.0399089 -0.0244534
    length 3.5433
    axis -0.00349562 0.000650293 0.0196666 xyz
  end
  begin
    id 12
    name LeftShoulder1
    direction 0.99951 1.64443e-005 0.0312999
    length 4.05031
    axis -0.00349562 0.000650293 0.0196666 xyz
    dof rx ry rz
  end
  begin
    id 13
    name LeftArm
    direction 0.984791 0.0515299 0.165927
    length 12.9126
    axis -64.823 -10.7743 5.20463 xyz
    dof rx ry rz
  end
  begin
    id 14
    name LeftForeArm
    direction 0.984968 0.0534808 0.16425
    length 10.8596
    axis -30.0462 -7.70601 1.87451 xyz
    dof rx ry rz
  end
  begin
    id 15
    name LeftHand
    direction 0.975871 0.0289682 0.216418
    length 6.62295
    axis -20.1348 -6.98077 1.86072 xyz
    dof rx ry rz
  end
  begin
    id 16
    name RightShoulderDummy
    direction -0.998877 -0.0405946 -0.0244307
    length 3.5433
    axis -0.00349562 0.000650293 0.0196666 xyz
  end
  begin
    id 17
    name RightShoulder
    direction -0.998933 -0.0249743 -0.0388558
    length 4.05031
    axis -0.0205316 -4.02113 1.41395 xyz
    dof rx ry rz
  end
  begin
    id 18
    name RightArm
    direction -0.997559 0.068664 0.0127103
    length 12.9638
    axis -67.3882 1.84188 -6.15987 xyz
    dof rx ry rz
  end
  begin
    id 19
    name RightForeArm
    direction -0.991508 0.0912848 0.0926241
    length 10.8312
    axis -22.1975 3.41087 -4.28711 xyz
    dof rx ry rz
  end
  begin
    id 20
    name RightHand
    direction -0.989262 0.0600788 0.133232
    length 6.57864
    axis -12.2911 2.17515 -4.39675 xyz
    dof rx ry rz
  end
  begin
    id 21
    name LeftUpLegDummy
    direction 0.718183 -0.695806 0.00816078
    length 4.904
    axis 0 0 0 xyz
  end
  begin
    id 22
    name LeftUpLeg
    direction 0.0831398 -0.99469 0.0606531
    length 17.4976
    axis -1.71016 2.29552 4.63832 xyz
    dof rx ry rz
  end
  begin
    id 23
    name LeftLeg
    direction 0.0498442 -0.991778 -0.117862
    length 16.5821
    axis 5.13757 15.5727 5.13348 xyz
    dof rx ry rz
  end
  begin
    id 24
    name LeftFoot
    direction 0.269026 -0.433896 0.85986
    length 3.77069
    axis -0.576502 15.6961 4.10267 xyz
    dof rx ry rz
  end
  begin
    id 25
    name LeftToes
    direction 0.277311 0.0251143 0.960452
    length 3.85048
    axis -0.576502 15.6961 4.10267 xyz
    dof rx ry rz
  end
:hierarchy
  begin
    root RightUpLegDummy SpineDummy LeftUpLegDummy
    RightUpLegDummy RightUpLeg
    RightUpLeg RightLeg
    RightLeg RightFoot
    RightFoot RightToes
    SpineDummy Spine
    Spine Spine1
    Spine1 HEadDummy LeftShoulder1Dummy RightShoulderDummy
    HEadDummy HEad
    LeftShoulder1Dummy LeftShoulder1
    LeftShoulder1 LeftArm
    LeftArm LeftForeArm
    LeftForeArm LeftHand
    RightShoulderDummy RightShoulder
    RightShoulder RightArm
    RightArm RightForeArm
    RightForeArm RightHand
    LeftUpLegDummy LeftUpLeg
    LeftUpLeg LeftLeg
    LeftLeg LeftFoot
    LeftFoot LeftToes
  end

:SAMPLES-PER-SECOND 30
:FULLY-SPECIFIED
:DEGREES
56
root  -4.74527 39.2335 -3.65797 -1.68982 -13.1784 -2.28878
RightUpLeg  -6.35308 -1.77907 3.39896
RightLeg  16.4576 -3.49123 -3.71998
RightFoot  -8.01661 -0.0507253 1.56365
RightToes  1.74624e-010 -3.18055e-015 -2.98177e-016
Spine  2.19297 -2.96806 1.55586
Spine1  8.57353 -5.35014 11.8377
HEad  -12.7965 12.5572 4.12664
LeftShoulder1  -3.88251e-019 9.70628e-020 -3.87848e-018
LeftArm  1.70613 57.4164 -82.6976
LeftForeArm  -80.4943 -78.61 63.7034
LeftHand  -1.53987 -6.16692 16.196
RightShoulder  6.41572 9.75668 31.4104
RightArm  53.8894 -41.3993 18.052
RightForeArm  -34.9217 66.3574 -81.7821
RightHand  -3.04098 11.8795 -20.2426
LeftUpLeg  -8.15609 6.13541 1.92937
LeftLeg  22.1614 8.02442 10.5784
LeftFoot  -10.4619 0.0808046 -4.79584
LeftToes  7.37594e-011 2.64622e-011 -6.25182e-011
57
root  -4.4113 39.3797 -3.56193 -2.13113 -13.3232 -1.44626
RightUpLeg  -5.89266 -2.62986 1.9542
RightLeg  15.8556 -2.41545 -3.48008
RightFoot  -7.35957 -0.0850486 2.0157
RightToes  1.74624e-010 -3.18055e-015 -2.98177e-016
Spine  2.02497 -3.31409 -2.28875
Spine1  8.50773 -6.38861 13.9397
HEad  -11.5463 13.4833 4.03493
LeftShoulder1  -3.88251e-019 9.70628e-020 -3.87848e-018
LeftArm  -1.65976 57.3273 -85.2785
LeftForeArm  -78.3016 -78.4191 61.9366
LeftHand  -1.70538 -6.1255 17.9373
RightShoulder  6.5181 9.77296 31.9287
RightArm  54.1057 -39.6008 17.8326
RightForeArm  -33.5693 66.2593 -80.4131
RightHand  -3.01992 12.1282 -19.8322
LeftUpLeg  -6.60681 4.27274 0.155022
LeftLeg  19.8403 10.8354 10.6166
LeftFoot  -8.98777 0.0883102 -3.11337
LeftToes  7.37594e-011 2.64622e-011 -6.25182e-011
58
root  -4.04939 39.4648 -3.47896 -2.78809 -13.2053 -0.150335
RightUpLeg  -5.91413 -4.65892 0.0996333
RightLeg  16.2413 -0.333272 -3.71665
RightFoot  -7.01694 -0.11523 2.43942
RightToes  1.74624e-010 -3.18055e-015 -2.98177e-016
Spine  2.13163 -3.65992 -6.10999
Spine1  8.47401 -7.26086 15.6073
HEad  -10.7515 14.4008 4.07401
LeftShoulder1  -3.88251e-019 9.70628e-020 -3.87848e-018
LeftArm  -4.29184 57.437 -86.9005
LeftForeArm  -75.6445 -78.123 59.2768
LeftHand  -1.68716 -6.15008 17.707
RightShoulder  6.6136 9.77615 32.4359
RightArm  53.3031 -38.9713 17.2374
RightForeArm  -29.3709 66.0213 -78.268
RightHand  -2.86183 12.3895 -18.5523
LeftUpLeg  -5.37609 3.53391 -1.82496
LeftLeg  18.2771 11.9001 10.2356
LeftFoot  -8.13021 0.0694792 -2.09743
LeftToes  7.37594e-011 2.64622e-011 -6.25182e-011
59
root  -3.65984 39.5007 -3.40666 -3.42097 -13.1369 1.30658
RightUpLeg  -6.40356 -7.46345 -1.82326
RightLeg  17.1725 2.46583 -4.20985
RightFoot  -6.93152 -0.131954 2.70337
RightToes  1.74624e-010 -3.18055e-015 -2.98177e-016
Spine  2.35563 -3.93335 -8.4047
Spine1  8.22052 -7.48031 14.9637
HEad  -10.3214 14.9996 4.10396
LeftShoulder1  -3.88251e-019 9.70628e-020 -3.87848e-018
LeftArm  -4.79336 58.0641 -86.6498
LeftForeArm  -74.0733 -77.9555 58.0084
LeftHand  -1.631 -6.3605 16.8289
RightShoulder  6.6851 9.79525 32.7775
RightArm  51.5752 -40.2036 16.4748
RightForeArm  -24.6304 65.6415 -75.0081
RightHand  -2.65849 12.4292 -17.2334
LeftUpLeg  -4.21425 4.28025 -3.89364
LeftLeg  16.6452 11.5266 9.26957
LeftFoot  -7.71258 0.038462 -1.26298
LeftToes  7.37594e-011 2.64622e-011 -6.25182e-011
60
root  -3.25181 39.505 -3.34926 -4.01913 -13.3613 2.65107
RightUpLeg  -7.33944 -9.65829 -3.57626
RightLeg  18.6651 4.83482 -4.90636
RightFoot  -6.93833 -0.177495 3.53128
RightToes  1.74624e-010 -3.18055e-015 -2.98177e-016
Spine  2.78187 -3.96606 -9.03845
Spine1  7.6293 -6.96651 12.166
HEad  -10.3104 14.9913 3.70139
LeftShoulder1  -3.88251e-019 9.70628e-020 -3.87848e-018
LeftArm  -3.26309 58.9845 -84.7495
LeftForeArm  -72.9923 -77.9367 58.3082
LeftHand  -1.60324 -6.70271 16.0832
RightShoulder  6.72897 9.83857 32.9164
RightArm  49.34 -42.7625 15.3987
RightForeArm  -22.5404 65.1416 -70.8088
RightHand  -2.5523 12.3619 -16.6231
LeftUpLeg  -3.13018 4.47229 -5.83523
LeftLeg  15.312 12.1529 8.39651
LeftFoot  -7.48837 -0.00826431 -0.240986
LeftToes  7.37594e-011 2.64622e-011 -6.25182e-011
61
root  -2.83656 39.4266 -3.31535 -4.62702 -13.7352 3.97779
RightUpLeg  -9.13506 -9.64949 -5.5195
RightLeg  21.7687 5.23937 -5.7257
RightFoot  -6.89277 -0.269898 5.17275
RightToes  1.74624e-010 -3.18055e-015 -2.98177e-016
Spine  3.36562 -3.6887 -9.10875
Spine1  7.07077 -6.0871 8.97292
HEad  -11.0768 14.5049 2.61433
LeftShoulder1  -3.88251e-019 9.70628e-020 -3.87848e-018
LeftArm  -0.849368 59.5046 -82.1384
LeftForeArm  -70.5295 -77.7962 57.8498
LeftHand  -1.52826 -7.04694 14.9261
RightShoulder  6.75712 9.88771 32.958
RightArm  46.7704 -45.3663 14.0377
RightForeArm  -22.8857 64.4745 -65.9982
RightHand  -2.53781 12.098 -16.7735
LeftUpLeg  -2.66382 3.0706 -7.80853
LeftLeg  15.3358 14.3408 8.34321
LeftFoot  -7.74666 -0.0447528 0.51162
LeftToes  7.37594e-011 2.64622e-011 -6.25182e-011
62
root  -2.44497 39.2123 -3.31288 -5.2478 -14.0907 5.58388
RightUpLeg  -11.9953 -9.3222 -7.70737
RightLeg  26.5859 5.08865 -6.92273
RightFoot  -6.89554 -0.329813 6.26048
RightToes  1.74624e-010 -3.18055e-015 -2.98177e-016
Spine  3.67962 -3.10923 -9.53161
Spine1  7.36719 -5.04542 6.44851
HEad  -13.0571 13.7186 1.10322
LeftShoulder1  -3.88251e-019 9.70628e-020 -3.87848e-018
LeftArm  1.724 59.1758 -79.3787
LeftForeArm  -66.3039 -77.3713 55.2567
LeftHand  -1.35392 -7.16524 13.1406
RightShoulder  6.80598 9.93419 33.1151
RightArm  43.5399 -47.2761 12.7928
RightForeArm  -22.0708 63.4151 -60.4665
RightHand  -2.55469 11.4519 -17.5087
LeftUpLeg  -3.13558 2.95868 -10.0804
LeftLeg  16.8169 14.9391 9.11254
LeftFoot  -8.73161 -0.0526712 0.763935
LeftToes  7.37594e-011 2.64622e-011 -6.25182e-011
63
root  -2.14265 38.9859 -3.36362 -6.31693 -13.69 6.6764
RightUpLeg  -13.726 -9.82328 -9.19357
RightLeg  30.6586 3.87863 -8.78485
RightFoot  -7.07667 -0.275455 5.4196
RightToes  1.74624e-010 -3.18055e-015 -2.98177e-016
Spine  4.51567 -2.49012 -9.85789
Spine1  8.54857 -4.13303 4.59851
HEad  -16.3738 12.4643 -0.282062
LeftShoulder1  -3.88251e-019 9.70628e-020 -3.87848e-018
LeftArm  4.43852 58.1917 -76.4176
LeftForeArm  -61.5677 -76.7747 51.911
LeftHand  -1.16562 -6.91296 11.6028
RightShoulder  6.8947 9.98805 33.4655
RightArm  39.4087 -48.7192 12.0613
RightForeArm  -17.5525 61.5608 -53.7995
RightHand  -2.59098 10.7756 -18.464
LeftUpLeg  -3.29854 5.2716 -11.5292
LeftLeg  18.3959 12.4128 9.55529
LeftFoot  -9.87949 -0.0600979 1.20506
LeftToes  7.37594e-011 2.64622e-011 -6.25182e-011
